<?xml version="1.0" standalone="no"?>
<!DOCTYPE svg PUBLIC "-//W3C//DTD SVG 20010904//EN"
 "http://www.w3.org/TR/2001/REC-SVG-20010904/DTD/svg10.dtd">
<svg version="1.0" xmlns="http://www.w3.org/2000/svg"
 width="500.000000pt" height="500.000000pt" viewBox="0 0 500.000000 500.000000"
 preserveAspectRatio="xMidYMid meet">
<metadata>
Created by potrace 1.11, written by Peter Selinger 2001-2013
</metadata>
<g transform="translate(0.000000,500.000000) scale(0.100000,-0.100000)"
fill="#000000" stroke="none">
<path d="M309 3280 c-186 -279 -262 -400 -250 -401 20 -1 203 -1 213 0 4 1 47
61 95 134 47 72 163 247 256 387 93 140 172 261 174 268 4 9 -22 12 -108 12
l-114 -1 -266 -399z"/>
<path d="M4220 3676 c0 -6 508 -777 520 -790 7 -7 132 -11 218 -7 19 1 -13 53
-245 401 l-266 400 -114 0 c-62 0 -113 -2 -113 -4z"/>
<path d="M1211 3544 l-86 -82 525 2 525 1 0 78 c0 70 -1 77 -20 78 -11 1 -209
2 -439 3 l-419 1 -86 -81z"/>
<path d="M2930 3620 c-5 -3 -8 -39 -7 -80 l2 -75 428 -2 c316 -1 427 2 428 10
1 15 1 128 0 142 -1 10 -835 15 -851 5z"/>
<path d="M3809 3598 c-7 -36 -4 -782 3 -788 3 -3 41 29 84 70 l78 74 1 253 1
253 -82 81 c-74 73 -82 79 -85 57z"/>
<path d="M1125 2820 l1 -621 39 -36 c22 -20 60 -56 85 -79 l45 -44 0 698 0
697 -85 3 -85 3 0 -621z"/>
<path d="M2923 2740 l0 -700 84 0 83 0 1 48 c0 54 0 1182 -1 1285 l0 67 -83 0
-84 0 0 -700z"/>
<path d="M3119 2956 c-7 -6 -2 -156 6 -157 5 -1 155 -2 332 -3 281 -1 323 1
324 14 3 64 1 132 -5 138 -6 5 -650 13 -657 8z"/>
<path d="M1603 2810 l1 -80 293 0 c161 0 293 2 293 5 0 2 -35 38 -77 79 l-78
75 -216 1 -216 0 0 -80z"/>
<path d="M301 2458 c144 -216 265 -397 269 -401 9 -10 217 -14 226 -4 4 4 0
15 -9 25 -10 10 -17 21 -17 24 0 3 -19 34 -42 68 -24 34 -52 77 -63 94 -11 18
-103 157 -204 309 l-183 277 -119 0 -119 0 261 -392z"/>
<path d="M4654 2712 c-295 -442 -434 -655 -429 -660 9 -9 215 -6 224 4 7 7
359 532 514 766 l19 28 -119 0 -118 -1 -91 -137z"/>
<path d="M2030 2379 c0 -203 4 -329 9 -327 6 2 44 36 85 77 l76 73 0 254 0
254 -85 0 -85 0 0 -331z"/>
<path d="M2494 2400 c-77 -50 -72 -147 13 -266 26 -35 50 -64 54 -64 12 0 77
94 103 150 37 79 24 143 -37 180 -41 25 -94 25 -133 0z m103 -82 c12 -28 7
-45 -18 -58 -41 -23 -80 35 -47 68 20 20 54 14 65 -10z"/>
<path d="M1319 2185 c0 -8 0 -35 0 -60 0 -96 -44 -85 346 -85 l345 0 0 80 0
80 -345 0 c-300 0 -345 -2 -346 -15z"/>
</g>
</svg>
